<svg width="120" height="120" viewBox="0 0 120 120" fill="none" xmlns="http://www.w3.org/2000/svg">
<g id="picture">
<circle id="Ellipse 220" cx="60" cy="60" r="60" fill="#E6E6E6"/>
<path id="Vector" d="M59.5 73C65.7894 73 71.8212 70.5241 76.2685 66.117C80.7158 61.7099 83.2143 55.7326 83.2143 49.5C83.2143 43.2674 80.7158 37.2901 76.2685 32.883C71.8212 28.4759 65.7894 26 59.5 26C53.2106 26 47.1788 28.4759 42.7315 32.883C38.2842 37.2901 35.7857 43.2674 35.7857 49.5C35.7857 55.7326 38.2842 61.7099 42.7315 66.117C47.1788 70.5241 53.2106 73 59.5 73ZM51.0333 81.8125C32.7844 81.8125 18 96.4633 18 114.547C18 117.558 20.4641 120 23.5025 120H95.4975C98.5359 120 101 117.558 101 114.547C101 96.4633 86.2156 81.8125 67.9667 81.8125H51.0333Z" fill="#755555"/>
<path id="Vector_2" d="M60.3385 7.34766C60.7937 7.06055 61.0972 6.53965 61.0972 5.95312C61.0972 5.04668 60.3825 4.3125 59.5 4.3125C58.6175 4.3125 57.9028 5.04668 57.9028 5.95312C57.9028 6.54375 58.2063 7.06055 58.6615 7.34766L56.3734 12.048C56.0101 12.7945 55.0677 13.0078 54.4328 12.4869L50.875 9.5625C51.0747 9.2877 51.1944 8.94727 51.1944 8.57812C51.1944 7.67168 50.4797 6.9375 49.5972 6.9375C48.7148 6.9375 48 7.67168 48 8.57812C48 9.48457 48.7148 10.2188 49.5972 10.2188C49.6052 10.2188 49.6172 10.2188 49.6252 10.2188L51.45 20.5301C51.6696 21.777 52.7278 22.6875 53.9656 22.6875H65.0344C66.2682 22.6875 67.3264 21.7811 67.55 20.5301L69.3748 10.2188C69.3828 10.2188 69.3948 10.2188 69.4028 10.2188C70.2852 10.2188 71 9.48457 71 8.57812C71 7.67168 70.2852 6.9375 69.4028 6.9375C68.5203 6.9375 67.8056 7.67168 67.8056 8.57812C67.8056 8.94727 67.9253 9.2877 68.125 9.5625L64.5672 12.4869C63.9323 13.0078 62.9899 12.7945 62.6266 12.048L60.3385 7.34766Z" fill="#755555"/>
</g>
</svg>
