<svg width="160" height="160" viewBox="0 0 160 160" fill="none" xmlns="http://www.w3.org/2000/svg">
<path id="Vector" d="M20 0C14.4688 0 10 4.46875 10 10V30C10 35.5312 14.4688 40 20 40H45V50H27.1875C17.3125 50 8.90625 57.2188 7.40625 67L0.34375 113.781C0.125 115.25 0 116.75 0 118.25V140C0 151.031 8.96875 160 20 160H140C151.031 160 160 151.031 160 140V118.25C160 116.75 159.875 115.25 159.656 113.75L152.562 67C151.094 57.2188 142.688 50 132.812 50H65V40H90C95.5312 40 100 35.5312 100 30V10C100 4.46875 95.5312 0 90 0H20ZM30 15H80C82.75 15 85 17.25 85 20C85 22.75 82.75 25 80 25H30C27.25 25 25 22.75 25 20C25 17.25 27.25 15 30 15ZM20 135C20 132.25 22.25 130 25 130H135C137.75 130 140 132.25 140 135C140 137.75 137.75 140 135 140H25C22.25 140 20 137.75 20 135ZM35 82.5C33.0109 82.5 31.1032 81.7098 29.6967 80.3033C28.2902 78.8968 27.5 76.9891 27.5 75C27.5 73.0109 28.2902 71.1032 29.6967 69.6967C31.1032 68.2902 33.0109 67.5 35 67.5C36.9891 67.5 38.8968 68.2902 40.3033 69.6967C41.7098 71.1032 42.5 73.0109 42.5 75C42.5 76.9891 41.7098 78.8968 40.3033 80.3033C38.8968 81.7098 36.9891 82.5 35 82.5ZM72.5 75C72.5 76.9891 71.7098 78.8968 70.3033 80.3033C68.8968 81.7098 66.9891 82.5 65 82.5C63.0109 82.5 61.1032 81.7098 59.6967 80.3033C58.2902 78.8968 57.5 76.9891 57.5 75C57.5 73.0109 58.2902 71.1032 59.6967 69.6967C61.1032 68.2902 63.0109 67.5 65 67.5C66.9891 67.5 68.8968 68.2902 70.3033 69.6967C71.7098 71.1032 72.5 73.0109 72.5 75ZM50 107.5C48.0109 107.5 46.1032 106.71 44.6967 105.303C43.2902 103.897 42.5 101.989 42.5 100C42.5 98.0109 43.2902 96.1032 44.6967 94.6967C46.1032 93.2902 48.0109 92.5 50 92.5C51.9891 92.5 53.8968 93.2902 55.3033 94.6967C56.7098 96.1032 57.5 98.0109 57.5 100C57.5 101.989 56.7098 103.897 55.3033 105.303C53.8968 106.71 51.9891 107.5 50 107.5ZM102.5 75C102.5 76.9891 101.71 78.8968 100.303 80.3033C98.8968 81.7098 96.9891 82.5 95 82.5C93.0109 82.5 91.1032 81.7098 89.6967 80.3033C88.2902 78.8968 87.5 76.9891 87.5 75C87.5 73.0109 88.2902 71.1032 89.6967 69.6967C91.1032 68.2902 93.0109 67.5 95 67.5C96.9891 67.5 98.8968 68.2902 100.303 69.6967C101.71 71.1032 102.5 73.0109 102.5 75ZM80 107.5C78.0109 107.5 76.1032 106.71 74.6967 105.303C73.2902 103.897 72.5 101.989 72.5 100C72.5 98.0109 73.2902 96.1032 74.6967 94.6967C76.1032 93.2902 78.0109 92.5 80 92.5C81.9891 92.5 83.8968 93.2902 85.3033 94.6967C86.7098 96.1032 87.5 98.0109 87.5 100C87.5 101.989 86.7098 103.897 85.3033 105.303C83.8968 106.71 81.9891 107.5 80 107.5ZM132.5 75C132.5 75.9849 132.306 76.9602 131.929 77.8701C131.552 78.7801 131 79.6069 130.303 80.3033C129.607 80.9997 128.78 81.5522 127.87 81.9291C126.96 82.306 125.985 82.5 125 82.5C124.015 82.5 123.04 82.306 122.13 81.9291C121.22 81.5522 120.393 80.9997 119.697 80.3033C119 79.6069 118.448 78.7801 118.071 77.8701C117.694 76.9602 117.5 75.9849 117.5 75C117.5 74.0151 117.694 73.0398 118.071 72.1299C118.448 71.2199 119 70.3931 119.697 69.6967C120.393 69.0003 121.22 68.4478 122.13 68.0709C123.04 67.694 124.015 67.5 125 67.5C125.985 67.5 126.96 67.694 127.87 68.0709C128.78 68.4478 129.607 69.0003 130.303 69.6967C131 70.3931 131.552 71.2199 131.929 72.1299C132.306 73.0398 132.5 74.0151 132.5 75ZM110 107.5C108.011 107.5 106.103 106.71 104.697 105.303C103.29 103.897 102.5 101.989 102.5 100C102.5 98.0109 103.29 96.1032 104.697 94.6967C106.103 93.2902 108.011 92.5 110 92.5C111.989 92.5 113.897 93.2902 115.303 94.6967C116.71 96.1032 117.5 98.0109 117.5 100C117.5 101.989 116.71 103.897 115.303 105.303C113.897 106.71 111.989 107.5 110 107.5Z" fill="#832E2E"/>
</svg>
