<svg width="19" height="20" viewBox="0 0 19 20" fill="none" xmlns="http://www.w3.org/2000/svg">
<path d="M4.55436 1.376C3.77331 0.59495 2.50698 0.59495 1.72593 1.376L0.962001 2.13993C0.180953 2.92098 0.180952 4.18731 0.962 4.96836L1.38218 5.38854L4.52654 8.58589C5.29646 9.36878 5.29121 10.626 4.51477 11.4024L1.38218 14.535L1.00737 14.8942C0.203812 15.6643 0.183493 16.9422 0.962156 17.7375L1.72609 18.5176C2.50463 19.3127 3.78245 19.3195 4.56932 18.5326L4.97454 18.1274L8.15992 14.942C8.94559 14.1563 10.221 14.1617 11.0001 14.9539L14.121 18.1274L14.4654 18.4868C15.2412 19.2963 16.5308 19.31 17.3236 18.5172L18.1032 17.7376C18.896 16.9448 18.8823 15.6552 18.0728 14.8794L17.7134 14.535L14.5399 11.4141C13.7477 10.635 13.7423 9.35959 14.528 8.57392L17.7134 5.38854L18.1186 4.98332C18.9055 4.19645 18.8988 2.91863 18.1036 2.14008L17.3235 1.37615C16.5282 0.597491 15.2503 0.617811 14.4802 1.42136L14.121 1.79618L10.9885 4.92877C10.212 5.7052 8.95479 5.71046 8.17189 4.94054L4.97454 1.79618L4.55436 1.376Z" fill="#755555"/>
</svg>
