<svg width="70" height="70" viewBox="0 0 70 70" fill="none" xmlns="http://www.w3.org/2000/svg">
<g id="user head">
<circle id="Ellipse 221" cx="35" cy="35" r="33.5" stroke="#755555" stroke-width="3"/>
<path id="Vector" d="M19.125 17.5625C16.2982 17.5625 14 19.8607 14 22.6875V48.3125C14 51.1393 16.2982 53.4375 19.125 53.4375H49.875C52.7018 53.4375 55 51.1393 55 48.3125V30.375C55 27.5482 52.7018 25.25 49.875 25.25H20.4062C19.7016 25.25 19.125 24.6734 19.125 23.9688C19.125 23.2641 19.7016 22.6875 20.4062 22.6875H49.875C51.2924 22.6875 52.4375 21.5424 52.4375 20.125C52.4375 18.7076 51.2924 17.5625 49.875 17.5625H19.125ZM47.3125 36.7812C47.9921 36.7812 48.6439 37.0512 49.1245 37.5318C49.605 38.0124 49.875 38.6641 49.875 39.3438C49.875 40.0234 49.605 40.6751 49.1245 41.1557C48.6439 41.6363 47.9921 41.9062 47.3125 41.9062C46.6329 41.9062 45.9811 41.6363 45.5005 41.1557C45.02 40.6751 44.75 40.0234 44.75 39.3438C44.75 38.6641 45.02 38.0124 45.5005 37.5318C45.9811 37.0512 46.6329 36.7812 47.3125 36.7812Z" fill="#755555"/>
</g>
</svg>
