<svg width="70" height="70" viewBox="0 0 70 70" fill="none" xmlns="http://www.w3.org/2000/svg">
<g id="user head">
<circle id="Ellipse 221" cx="35" cy="35" r="33.5" stroke="#755555" stroke-width="3"/>
<path id="Vector" d="M10 20.0312V24.25C10 25.8057 11.2413 27.0625 12.7778 27.0625H14.1667H18.3333V20.0312C18.3333 17.7021 16.467 15.8125 14.1667 15.8125C11.8663 15.8125 10 17.7021 10 20.0312ZM19.7222 15.8125C20.5903 16.9902 21.1111 18.4492 21.1111 20.0312V46.75C21.1111 49.8525 23.6024 52.375 26.6667 52.375C29.7309 52.375 32.2222 49.8525 32.2222 46.75V46.2842C32.2222 43.4365 34.5052 41.125 37.3177 41.125H51.6667V24.25C51.6667 19.5918 47.934 15.8125 43.3333 15.8125H19.7222ZM50.2778 55.1875C55.651 55.1875 60 50.7842 60 45.3438C60 44.5703 59.375 43.9375 58.6111 43.9375H37.3177C36.0417 43.9375 35 44.9834 35 46.2842V46.75C35 51.4082 31.2674 55.1875 26.6667 55.1875H41.9444H50.2778Z" fill="#755555"/>
</g>
</svg>
