<svg width="120" height="120" viewBox="0 0 120 120" fill="none" xmlns="http://www.w3.org/2000/svg">
<circle cx="60" cy="60" r="60" fill="#E6E6E6"/>
<path d="M31.625 21C28.9631 21 26.8125 23.1506 26.8125 25.8125V35.4375C26.8125 38.0994 28.9631 40.25 31.625 40.25H43.6562V45.0625H35.084C30.3316 45.0625 26.2861 48.5365 25.5643 53.2437L22.1654 75.7572C22.0602 76.4641 22 77.1859 22 77.9078V88.375C22 93.6838 26.3162 98 31.625 98H89.375C94.6838 98 99 93.6838 99 88.375V77.9078C99 77.1859 98.9398 76.4641 98.8346 75.7422L95.4207 53.2437C94.7139 48.5365 90.6684 45.0625 85.916 45.0625H53.2812V40.25H65.3125C67.9744 40.25 70.125 38.0994 70.125 35.4375V25.8125C70.125 23.1506 67.9744 21 65.3125 21H31.625ZM36.4375 28.2188H60.5C61.8234 28.2188 62.9062 29.3016 62.9062 30.625C62.9062 31.9484 61.8234 33.0312 60.5 33.0312H36.4375C35.1141 33.0312 34.0312 31.9484 34.0312 30.625C34.0312 29.3016 35.1141 28.2188 36.4375 28.2188ZM31.625 85.9688C31.625 84.6453 32.7078 83.5625 34.0312 83.5625H86.9688C88.2922 83.5625 89.375 84.6453 89.375 85.9688C89.375 87.2922 88.2922 88.375 86.9688 88.375H34.0312C32.7078 88.375 31.625 87.2922 31.625 85.9688ZM38.8438 60.7031C37.8865 60.7031 36.9684 60.3228 36.2915 59.646C35.6146 58.9691 35.2344 58.051 35.2344 57.0938C35.2344 56.1365 35.6146 55.2184 36.2915 54.5415C36.9684 53.8646 37.8865 53.4844 38.8438 53.4844C39.801 53.4844 40.7191 53.8646 41.396 54.5415C42.0729 55.2184 42.4531 56.1365 42.4531 57.0938C42.4531 58.051 42.0729 58.9691 41.396 59.646C40.7191 60.3228 39.801 60.7031 38.8438 60.7031ZM56.8906 57.0938C56.8906 58.051 56.5104 58.9691 55.8335 59.646C55.1566 60.3228 54.2385 60.7031 53.2812 60.7031C52.324 60.7031 51.4059 60.3228 50.729 59.646C50.0521 58.9691 49.6719 58.051 49.6719 57.0938C49.6719 56.1365 50.0521 55.2184 50.729 54.5415C51.4059 53.8646 52.324 53.4844 53.2812 53.4844C54.2385 53.4844 55.1566 53.8646 55.8335 54.5415C56.5104 55.2184 56.8906 56.1365 56.8906 57.0938ZM46.0625 72.7344C45.1052 72.7344 44.1872 72.3541 43.5103 71.6772C42.8334 71.0003 42.4531 70.0823 42.4531 69.125C42.4531 68.1677 42.8334 67.2497 43.5103 66.5728C44.1872 65.8959 45.1052 65.5156 46.0625 65.5156C47.0198 65.5156 47.9378 65.8959 48.6147 66.5728C49.2916 67.2497 49.6719 68.1677 49.6719 69.125C49.6719 70.0823 49.2916 71.0003 48.6147 71.6772C47.9378 72.3541 47.0198 72.7344 46.0625 72.7344ZM71.3281 57.0938C71.3281 58.051 70.9478 58.9691 70.271 59.646C69.5941 60.3228 68.676 60.7031 67.7188 60.7031C66.7615 60.7031 65.8434 60.3228 65.1665 59.646C64.4897 58.9691 64.1094 58.051 64.1094 57.0938C64.1094 56.1365 64.4897 55.2184 65.1665 54.5415C65.8434 53.8646 66.7615 53.4844 67.7188 53.4844C68.676 53.4844 69.5941 53.8646 70.271 54.5415C70.9478 55.2184 71.3281 56.1365 71.3281 57.0938ZM60.5 72.7344C59.5427 72.7344 58.6247 72.3541 57.9478 71.6772C57.2709 71.0003 56.8906 70.0823 56.8906 69.125C56.8906 68.1677 57.2709 67.2497 57.9478 66.5728C58.6247 65.8959 59.5427 65.5156 60.5 65.5156C61.4573 65.5156 62.3753 65.8959 63.0522 66.5728C63.7291 67.2497 64.1094 68.1677 64.1094 69.125C64.1094 70.0823 63.7291 71.0003 63.0522 71.6772C62.3753 72.3541 61.4573 72.7344 60.5 72.7344ZM85.7656 57.0938C85.7656 57.5677 85.6723 58.0371 85.4909 58.475C85.3095 58.9129 85.0436 59.3108 84.7085 59.646C84.3733 59.9811 83.9754 60.247 83.5375 60.4284C83.0996 60.6098 82.6302 60.7031 82.1562 60.7031C81.6823 60.7031 81.2129 60.6098 80.775 60.4284C80.3371 60.247 79.9392 59.9811 79.604 59.646C79.2689 59.3108 79.003 58.9129 78.8216 58.475C78.6402 58.0371 78.5469 57.5677 78.5469 57.0938C78.5469 56.6198 78.6402 56.1504 78.8216 55.7125C79.003 55.2746 79.2689 54.8767 79.604 54.5415C79.9392 54.2064 80.3371 53.9405 80.775 53.7591C81.2129 53.5777 81.6823 53.4844 82.1562 53.4844C82.6302 53.4844 83.0996 53.5777 83.5375 53.7591C83.9754 53.9405 84.3733 54.2064 84.7085 54.5415C85.0436 54.8767 85.3095 55.2746 85.4909 55.7125C85.6723 56.1504 85.7656 56.6198 85.7656 57.0938ZM74.9375 72.7344C73.9802 72.7344 73.0622 72.3541 72.3853 71.6772C71.7084 71.0003 71.3281 70.0823 71.3281 69.125C71.3281 68.1677 71.7084 67.2497 72.3853 66.5728C73.0622 65.8959 73.9802 65.5156 74.9375 65.5156C75.8948 65.5156 76.8128 65.8959 77.4897 66.5728C78.1666 67.2497 78.5469 68.1677 78.5469 69.125C78.5469 70.0823 78.1666 71.0003 77.4897 71.6772C76.8128 72.3541 75.8948 72.7344 74.9375 72.7344Z" fill="#755555"/>
</svg>
