<svg width="120" height="120" viewBox="0 0 120 120" fill="none" xmlns="http://www.w3.org/2000/svg">
<g id="picture">
<circle id="Ellipse 220" cx="60" cy="60" r="60" fill="#E6E6E6"/>
<path id="Vector" d="M32.25 28C27.148 28 23 32.1 23 37.1429V82.8571C23 87.9 27.148 92 32.25 92H87.75C92.852 92 97 87.9 97 82.8571V50.8571C97 45.8143 92.852 41.7143 87.75 41.7143H34.5625C33.2906 41.7143 32.25 40.6857 32.25 39.4286C32.25 38.1714 33.2906 37.1429 34.5625 37.1429H87.75C90.3082 37.1429 92.375 35.1 92.375 32.5714C92.375 30.0429 90.3082 28 87.75 28H32.25ZM83.125 62.2857C84.3516 62.2857 85.528 62.7673 86.3954 63.6247C87.2627 64.482 87.75 65.6447 87.75 66.8571C87.75 68.0696 87.2627 69.2323 86.3954 70.0896C85.528 70.9469 84.3516 71.4286 83.125 71.4286C81.8984 71.4286 80.722 70.9469 79.8546 70.0896C78.9873 69.2323 78.5 68.0696 78.5 66.8571C78.5 65.6447 78.9873 64.482 79.8546 63.6247C80.722 62.7673 81.8984 62.2857 83.125 62.2857Z" fill="#755555"/>
</g>
</svg>
