<svg width="70" height="70" viewBox="0 0 70 70" fill="none" xmlns="http://www.w3.org/2000/svg">
<g id="user head">
<circle id="Ellipse 221" cx="35" cy="35" r="33.5" stroke="#755555" stroke-width="3"/>
<path id="Vector" d="M18.5 13C16.9789 13 15.75 14.2289 15.75 15.75V21.25C15.75 22.7711 16.9789 24 18.5 24H25.375V26.75H20.4766C17.7609 26.75 15.4492 28.7352 15.0367 31.425L13.0945 44.2898C13.0344 44.6938 13 45.1063 13 45.5187V51.5C13 54.5336 15.4664 57 18.5 57H51.5C54.5336 57 57 54.5336 57 51.5V45.5187C57 45.1063 56.9656 44.6938 56.9055 44.2812L54.9547 31.425C54.5508 28.7352 52.2391 26.75 49.5234 26.75H30.875V24H37.75C39.2711 24 40.5 22.7711 40.5 21.25V15.75C40.5 14.2289 39.2711 13 37.75 13H18.5ZM21.25 17.125H35C35.7563 17.125 36.375 17.7438 36.375 18.5C36.375 19.2562 35.7563 19.875 35 19.875H21.25C20.4938 19.875 19.875 19.2562 19.875 18.5C19.875 17.7438 20.4938 17.125 21.25 17.125ZM18.5 50.125C18.5 49.3688 19.1188 48.75 19.875 48.75H50.125C50.8812 48.75 51.5 49.3688 51.5 50.125C51.5 50.8812 50.8812 51.5 50.125 51.5H19.875C19.1188 51.5 18.5 50.8812 18.5 50.125ZM22.625 35.6875C22.078 35.6875 21.5534 35.4702 21.1666 35.0834C20.7798 34.6966 20.5625 34.172 20.5625 33.625C20.5625 33.078 20.7798 32.5534 21.1666 32.1666C21.5534 31.7798 22.078 31.5625 22.625 31.5625C23.172 31.5625 23.6966 31.7798 24.0834 32.1666C24.4702 32.5534 24.6875 33.078 24.6875 33.625C24.6875 34.172 24.4702 34.6966 24.0834 35.0834C23.6966 35.4702 23.172 35.6875 22.625 35.6875ZM32.9375 33.625C32.9375 34.172 32.7202 34.6966 32.3334 35.0834C31.9466 35.4702 31.422 35.6875 30.875 35.6875C30.328 35.6875 29.8034 35.4702 29.4166 35.0834C29.0298 34.6966 28.8125 34.172 28.8125 33.625C28.8125 33.078 29.0298 32.5534 29.4166 32.1666C29.8034 31.7798 30.328 31.5625 30.875 31.5625C31.422 31.5625 31.9466 31.7798 32.3334 32.1666C32.7202 32.5534 32.9375 33.078 32.9375 33.625ZM26.75 42.5625C26.203 42.5625 25.6784 42.3452 25.2916 41.9584C24.9048 41.5716 24.6875 41.047 24.6875 40.5C24.6875 39.953 24.9048 39.4284 25.2916 39.0416C25.6784 38.6548 26.203 38.4375 26.75 38.4375C27.297 38.4375 27.8216 38.6548 28.2084 39.0416C28.5952 39.4284 28.8125 39.953 28.8125 40.5C28.8125 41.047 28.5952 41.5716 28.2084 41.9584C27.8216 42.3452 27.297 42.5625 26.75 42.5625ZM41.1875 33.625C41.1875 34.172 40.9702 34.6966 40.5834 35.0834C40.1966 35.4702 39.672 35.6875 39.125 35.6875C38.578 35.6875 38.0534 35.4702 37.6666 35.0834C37.2798 34.6966 37.0625 34.172 37.0625 33.625C37.0625 33.078 37.2798 32.5534 37.6666 32.1666C38.0534 31.7798 38.578 31.5625 39.125 31.5625C39.672 31.5625 40.1966 31.7798 40.5834 32.1666C40.9702 32.5534 41.1875 33.078 41.1875 33.625ZM35 42.5625C34.453 42.5625 33.9284 42.3452 33.5416 41.9584C33.1548 41.5716 32.9375 41.047 32.9375 40.5C32.9375 39.953 33.1548 39.4284 33.5416 39.0416C33.9284 38.6548 34.453 38.4375 35 38.4375C35.547 38.4375 36.0716 38.6548 36.4584 39.0416C36.8452 39.4284 37.0625 39.953 37.0625 40.5C37.0625 41.047 36.8452 41.5716 36.4584 41.9584C36.0716 42.3452 35.547 42.5625 35 42.5625ZM49.4375 33.625C49.4375 33.8959 49.3842 34.1641 49.2805 34.4143C49.1768 34.6645 49.0249 34.8919 48.8334 35.0834C48.6419 35.2749 48.4145 35.4268 48.1643 35.5305C47.9141 35.6342 47.6459 35.6875 47.375 35.6875C47.1041 35.6875 46.8359 35.6342 46.5857 35.5305C46.3355 35.4268 46.1081 35.2749 45.9166 35.0834C45.7251 34.8919 45.5732 34.6645 45.4695 34.4143C45.3658 34.1641 45.3125 33.8959 45.3125 33.625C45.3125 33.3541 45.3658 33.0859 45.4695 32.8357C45.5732 32.5855 45.7251 32.3581 45.9166 32.1666C46.1081 31.9751 46.3355 31.8231 46.5857 31.7195C46.8359 31.6158 47.1041 31.5625 47.375 31.5625C47.6459 31.5625 47.9141 31.6158 48.1643 31.7195C48.4145 31.8231 48.6419 31.9751 48.8334 32.1666C49.0249 32.3581 49.1768 32.5855 49.2805 32.8357C49.3842 33.0859 49.4375 33.3541 49.4375 33.625ZM43.25 42.5625C42.703 42.5625 42.1784 42.3452 41.7916 41.9584C41.4048 41.5716 41.1875 41.047 41.1875 40.5C41.1875 39.953 41.4048 39.4284 41.7916 39.0416C42.1784 38.6548 42.703 38.4375 43.25 38.4375C43.797 38.4375 44.3216 38.6548 44.7084 39.0416C45.0952 39.4284 45.3125 39.953 45.3125 40.5C45.3125 41.047 45.0952 41.5716 44.7084 41.9584C44.3216 42.3452 43.797 42.5625 43.25 42.5625Z" fill="#755555"/>
</g>
</svg>
