<svg width="16" height="15" viewBox="0 0 16 15" fill="none" xmlns="http://www.w3.org/2000/svg">
<path d="M7.05885 1.6207C7.37584 0.738015 8.62416 0.738017 8.94115 1.6207L10.1197 4.90233C10.2623 5.29946 10.6388 5.56434 11.0608 5.56434H14.6443C15.6371 5.56434 16.0232 6.85464 15.1936 7.39997L12.4723 9.18879C12.0863 9.44253 11.9244 9.92765 12.0805 10.3624L13.1595 13.3669C13.4841 14.2709 12.4716 15.0681 11.669 14.5405L8.5493 12.4898C8.21589 12.2706 7.78411 12.2706 7.4507 12.4898L4.33099 14.5405C3.52836 15.0681 2.5159 14.2709 2.84054 13.3669L3.91951 10.3624C4.07564 9.92765 3.91367 9.44253 3.52766 9.18879L0.806378 7.39996C-0.0231993 6.85464 0.362918 5.56434 1.35568 5.56434H4.9392C5.36117 5.56434 5.73773 5.29946 5.88035 4.90233L7.05885 1.6207Z" fill="#FBC26B"/>
</svg>
