<svg width="149" height="130" viewBox="0 0 149 130" fill="none" xmlns="http://www.w3.org/2000/svg">
<path id="Vector" d="M18.625 0C8.35215 0 0 8.32812 0 18.5714V111.429C0 121.672 8.35215 130 18.625 130H130.375C140.648 130 149 121.672 149 111.429V46.4286C149 36.1853 140.648 27.8571 130.375 27.8571H23.2812C20.7203 27.8571 18.625 25.7679 18.625 23.2143C18.625 20.6607 20.7203 18.5714 23.2812 18.5714H130.375C135.526 18.5714 139.688 14.4219 139.688 9.28571C139.688 4.14955 135.526 0 130.375 0H18.625ZM121.062 69.6429C123.532 69.6429 125.901 70.6212 127.647 72.3626C129.394 74.104 130.375 76.4658 130.375 78.9286C130.375 81.3913 129.394 83.7532 127.647 85.4946C125.901 87.236 123.532 88.2143 121.062 88.2143C118.593 88.2143 116.224 87.236 114.478 85.4946C112.731 83.7532 111.75 81.3913 111.75 78.9286C111.75 76.4658 112.731 74.104 114.478 72.3626C116.224 70.6212 118.593 69.6429 121.062 69.6429Z" fill="#832E2E"/>
</svg>
